<?xml version="1.0" encoding="UTF-8"?>
<svg width="1200pt" height="1200pt" version="1.1" viewBox="0 0 1200 1200" xmlns="http://www.w3.org/2000/svg">
 <path d="m1166.2 589.37-294.77-101.82 136.38-280.32c2.1055-4.3203 1.2461-9.4844-2.1602-12.883-3.3672-3.3867-8.5312-4.2305-12.871-2.1602l-280.32 136.38-101.81-294.74c-3.1484-9.0625-18.129-9.0625-21.277 0l-101.8 294.74-280.32-136.38c-4.3203-2.0977-9.5234-1.2461-12.871 2.1602-3.4062 3.3984-4.2656 8.5586-2.1602 12.883l136.38 280.32-294.77 101.82c-4.5234 1.5664-7.5625 5.832-7.5625 10.629s3.0391 9.0625 7.5625 10.629l294.77 101.82-136.38 280.32c-2.1055 4.3203-1.2461 9.4844 2.1602 12.883 2.1406 2.1602 5.0352 3.2969 7.9453 3.2969 1.668 0 3.3516-0.375 4.9258-1.1367l280.32-136.38 101.8 294.74c1.5781 4.5312 5.8438 7.5781 10.641 7.5781s9.0625-3.0469 10.637-7.582l101.8-294.74 280.32 136.38c1.5742 0.76172 3.2578 1.1367 4.9258 1.1367 2.9102 0 5.8047-1.1367 7.9453-3.2969 3.4062-3.3984 4.2656-8.5586 2.1602-12.883l-136.38-280.32 294.77-101.82c4.5273-1.5625 7.5664-5.8281 7.5664-10.625s-3.0391-9.0625-7.5625-10.629zm-686.02-239.37-29.332 84.922-193.2-193.2zm-238.39-92.324 193.16 193.15-84.926 29.336zm108.23 462.16 84.926 29.336-193.16 193.15zm-92.371 238.43 193.2-193.2 29.332 84.922zm331.13 137.22-122.54-354.75c-1.1367-3.2695-3.6992-5.832-6.957-6.957l-354.73-122.54h484.22zm0-506.74h-484.22l354.73-122.54c3.2578-1.125 5.8242-3.6914 6.957-6.957l122.54-354.75zm261.25-108.59-84.926-29.336 193.16-193.15zm92.371-238.43-193.2 193.2-29.332-84.922zm-222.53 608.27 29.332-84.922 193.2 193.2zm238.39 92.324-193.16-193.15 84.926-29.336zm-217.5-208.54c-3.2578 1.125-5.8242 3.6914-6.957 6.957l-122.54 354.75v-484.24h484.22zm-129.49-145.04v-484.24l122.54 354.75c1.1367 3.2695 3.6992 5.832 6.957 6.957l354.73 122.54z"/>
</svg>
